Coordinates
version=1
nRows=17
nColumns=38
inDegrees=no

Units are S.I. units (second, meters, Newtons, ...)
If the header above contains a line with 'inDegrees', this indicates whether rotational values are in degrees (yes) or radians (no).

endheader
time	pelvis_tilt	pelvis_list	pelvis_rotation	pelvis_tx	pelvis_ty	pelvis_tz	hip_flexion_r	hip_adduction_r	hip_rotation_r	knee_angle_r	ankle_angle_r	subtalar_angle_r	mtp_angle_r	hip_flexion_l	hip_adduction_l	hip_rotation_l	knee_angle_l	ankle_angle_l	subtalar_angle_l	mtp_angle_l	lumbar_extension	lumbar_bending	lumbar_rotation	arm_flex_r	arm_add_r	arm_rot_r	elbow_flex_r	pro_sup_r	wrist_flex_r	wrist_dev_r	arm_flex_l	arm_add_l	arm_rot_l	elbow_flex_l	pro_sup_l	wrist_flex_l	wrist_dev_l
1.67	3.12487	1.27438	-1.43834	0.600449	1.28043	0.949274	-0.383231	-0.140446	-0.431286	0.812288	-0.698132	0	0	-0.0805375	-0.0428034	-0.434478	0.408653	-0.24639	0	0	-0.423565	-0.012631	-0.218815	0.0796136	-0.438017	0.988261	0.612835	0.556571	0	0	-0.366943	-0.378769	-0.0244551	0.920235	1.50648	0	0
1.68	3.1287	1.27631	-1.44141	0.598604	1.29038	0.950109	-0.337807	-0.160573	-0.428292	0.897639	-0.698132	0	0	-0.092743	-0.0402602	-0.437288	0.407173	-0.238364	0	0	-0.422454	-0.0122516	-0.224288	0.0864961	-0.445417	1.00326	0.621408	0.544997	0	0	-0.363173	-0.386796	-0.0229863	0.930725	1.50222	0	0
1.69	3.12796	1.27699	-1.43933	0.59646	1.29995	0.951198	-0.270022	-0.142861	-0.310704	1.00586	-0.6365	0	0	-0.106201	-0.0383826	-0.437109	0.402307	-0.232234	0	0	-0.422821	-0.00918991	-0.2296	0.0965441	-0.455109	1.02484	0.630844	0.524738	0	0	-0.356018	-0.396139	-0.0161457	0.939079	1.49352	0	0
1.7	3.11206	1.27483	-1.42206	0.595273	1.30947	0.952763	-0.265434	-0.173535	-0.407587	1.00899	-0.635089	0	0	-0.121844	-0.0444601	-0.435904	0.397609	-0.22823	0	0	-0.424949	-0.00262579	-0.23247	0.105593	-0.460526	1.04097	0.635324	0.508074	0	0	-0.347	-0.40817	-0.00684523	0.94598	1.48271	0	0
1.71	3.10234	1.27596	-1.41132	0.593339	1.31869	0.954157	-0.205209	-0.146249	-0.29973	1.08691	-0.562388	0	0	-0.13498	-0.0450658	-0.430967	0.38746	-0.22714	0	0	-0.427328	0.00246324	-0.237961	0.106387	-0.460224	1.0174	0.635526	0.537816	0	0	-0.340135	-0.407282	-0.024294	0.953532	1.50169	0	0
1.72	3.08723	1.27876	-1.39543	0.591919	1.32801	0.95552	-0.169736	-0.146658	-0.294999	1.12301	-0.491006	0	0	-0.146406	-0.0479379	-0.425333	0.376962	-0.22479	0	0	-0.427384	0.00770933	-0.244334	0.109146	-0.4548	0.996727	0.628152	0.572948	0	0	-0.335233	-0.40197	-0.0544506	0.960535	1.53808	0	0
1.73	3.06998	1.28027	-1.37761	0.590583	1.3372	0.956988	-0.137452	-0.14511	-0.291376	1.14838	-0.455379	0	0	-0.159611	-0.0514769	-0.420546	0.365822	-0.222387	0	0	-0.426179	0.0145368	-0.24714	0.119857	-0.457373	1.0127	0.625517	0.565827	0	0	-0.323928	-0.40728	-0.0570653	0.963452	1.54631	0	0
1.74	3.05067	1.28264	-1.35678	0.589256	1.34639	0.958348	-0.105979	-0.14216	-0.288523	1.16546	-0.426578	0	0	-0.171627	-0.0554116	-0.415485	0.355732	-0.218681	0	0	-0.423461	0.0222079	-0.250161	0.12946	-0.459291	1.0262	0.621691	0.559326	0	0	-0.31099	-0.412966	-0.0575847	0.965042	1.55197	0	0
1.75	3.02947	1.28531	-1.33387	0.587947	1.3556	0.95953	-0.0755907	-0.137986	-0.285413	1.17561	-0.400143	0	0	-0.182999	-0.0597354	-0.41116	0.346745	-0.214292	0	0	-0.419873	0.0301917	-0.252571	0.138079	-0.46092	1.03813	0.616999	0.553106	0	0	-0.297732	-0.419867	-0.055933	0.966484	1.55596	0	0
1.76	2.98881	1.29637	-1.29931	0.587853	1.36398	0.960106	-0.0451914	-0.112094	-0.163666	1.16125	-0.356092	0	0	-0.182668	-0.0660421	-0.405518	0.339505	-0.207135	0	0	-0.408828	0.0381259	-0.246251	0.149538	-0.459534	1.05472	0.606143	0.544297	0	0	-0.280424	-0.427313	-0.0517313	0.964395	1.55819	0	0
1.77	2.96844	1.2976	-1.27694	0.586617	1.37314	0.96101	-0.0186075	-0.106832	-0.161909	1.16069	-0.334607	0	0	-0.195186	-0.0698792	-0.400499	0.330134	-0.202809	0	0	-0.406513	0.0458408	-0.248038	0.157563	-0.463126	1.06871	0.604684	0.536082	0	0	-0.267341	-0.435823	-0.0481218	0.968403	1.55602	0	0
1.78	2.94895	1.29857	-1.2555	0.585401	1.38238	0.961724	0.00655643	-0.102021	-0.163223	1.15495	-0.317973	0	0	-0.207573	-0.0739157	-0.396377	0.321444	-0.198989	0	0	-0.404051	0.0533563	-0.24937	0.164723	-0.467474	1.08254	0.604339	0.527188	0	0	-0.25401	-0.444586	-0.043172	0.972663	1.55053	0	0
1.79	2.93091	1.2989	-1.2353	0.584186	1.39163	0.962265	0.0295459	-0.0983164	-0.168045	1.14575	-0.304838	0	0	-0.220204	-0.0779578	-0.39294	0.313261	-0.195822	0	0	-0.401814	0.0606948	-0.250286	0.171423	-0.472998	1.09775	0.605752	0.516047	0	0	-0.240061	-0.454793	-0.0347859	0.977422	1.53907	0	0
1.8	2.94434	1.29849	-1.23902	0.582978	1.40232	0.961835	0.00582684	-0.103919	-0.207585	1.07452	-0.270972	0	0	-0.236766	-0.0774025	-0.389925	0.307613	-0.190456	0	0	-0.398817	0.0595393	-0.263252	0.167046	-0.474483	1.08711	0.61053	0.53241	0	0	-0.240384	-0.461102	-0.0501036	0.993581	1.54423	0	0
1.81	2.90281	1.29577	-1.20024	0.581655	1.40999	0.963119	0.0670981	-0.0936989	-0.190861	1.11782	-0.266333	0	0	-0.248741	-0.0862589	-0.383947	0.298021	-0.187936	0	0	-0.405625	0.0746403	-0.260151	0.17469	-0.47532	1.07486	0.60614	0.553626	0	0	-0.22344	-0.458026	-0.0639401	0.998256	1.54714	0	0
1.82	2.89157	1.29516	-1.18601	0.580546	1.41932	0.963244	0.0867637	-0.0936357	-0.208802	1.09809	-0.256677	0	0	-0.262312	-0.0897387	-0.381657	0.291388	-0.184421	0	0	-0.405443	0.0801193	-0.263579	0.176069	-0.477041	1.0684	0.606428	0.563877	0	0	-0.213544	-0.460704	-0.0725909	1.0068	1.54285	0	0
1.83	2.88617	1.293	-1.17701	0.57943	1.42871	0.963321	0.101764	-0.0968594	-0.235893	1.07627	-0.245351	0	0	-0.278767	-0.0922131	-0.378971	0.283843	-0.179737	0	0	-0.407278	0.0846004	-0.26786	0.17745	-0.479302	1.06284	0.608543	0.574053	0	0	-0.204434	-0.464013	-0.0811744	1.01678	1.5373	0	0
